<svg width="12" height="13" viewBox="0 0 12 13" fill="none" xmlns="http://www.w3.org/2000/svg">
<path d="M0 1.4484C0 1.27159 0.0702374 1.10203 0.195262 0.977001C0.320286 0.851977 0.489856 0.781738 0.666667 0.781738H11.3333C11.5101 0.781738 11.6797 0.851977 11.8047 0.977001C11.9298 1.10203 12 1.27159 12 1.4484C12 1.62522 11.9298 1.79478 11.8047 1.91981C11.6797 2.04483 11.5101 2.11507 11.3333 2.11507H0.666667C0.489856 2.11507 0.320286 2.04483 0.195262 1.91981C0.0702374 1.79478 0 1.62522 0 1.4484ZM11.3333 6.11507H3.33333C3.15652 6.11507 2.98695 6.18531 2.86193 6.31033C2.7369 6.43536 2.66667 6.60493 2.66667 6.78174C2.66667 6.95855 2.7369 7.12812 2.86193 7.25314C2.98695 7.37817 3.15652 7.44841 3.33333 7.44841H11.3333C11.5101 7.44841 11.6797 7.37817 11.8047 7.25314C11.9298 7.12812 12 6.95855 12 6.78174C12 6.60493 11.9298 6.43536 11.8047 6.31033C11.6797 6.18531 11.5101 6.11507 11.3333 6.11507ZM11.3333 11.4484H5.77778C5.60097 11.4484 5.4314 11.5186 5.30637 11.6437C5.18135 11.7687 5.11111 11.9383 5.11111 12.1151C5.11111 12.2919 5.18135 12.4615 5.30637 12.5865C5.4314 12.7115 5.60097 12.7817 5.77778 12.7817H11.3333C11.5101 12.7817 11.6797 12.7115 11.8047 12.5865C11.9298 12.4615 12 12.2919 12 12.1151C12 11.9383 11.9298 11.7687 11.8047 11.6437C11.6797 11.5186 11.5101 11.4484 11.3333 11.4484Z" fill="black"/>
</svg>
