<svg width="20" height="21" viewBox="0 0 20 21" fill="none" xmlns="http://www.w3.org/2000/svg">
<path d="M1 7.40674V6.90674C0.860302 6.90674 0.726974 6.96518 0.632308 7.06791C0.537641 7.17065 0.49027 7.3083 0.501667 7.44753L1 7.40674ZM17.2 7.40674L17.6983 7.44753C17.7097 7.3083 17.6624 7.17065 17.5677 7.06791C17.473 6.96518 17.3397 6.90674 17.2 6.90674V7.40674ZM16.3546 17.7354L15.8562 17.6946L15.8562 17.6946L16.3546 17.7354ZM14.3387 19.7817V20.2817H14.3389L14.3387 19.7817ZM3.86133 19.7817L3.86111 20.2817H3.86133V19.7817ZM1.84544 17.7354L2.34377 17.6946L2.34377 17.6946L1.84544 17.7354ZM4.55 9.65674C4.55 9.93288 4.77386 10.1567 5.05 10.1567C5.32614 10.1567 5.55 9.93288 5.55 9.65674H4.55ZM9.1 1.78174V1.28174V1.78174ZM13.15 6.28174H13.65H13.15ZM12.65 9.65674C12.65 9.93288 12.8739 10.1567 13.15 10.1567C13.4261 10.1567 13.65 9.93288 13.65 9.65674H12.65ZM1 7.90674H17.2V6.90674H1V7.90674ZM16.7017 7.36595L15.8562 17.6946L16.8529 17.7762L17.6983 7.44753L16.7017 7.36595ZM15.8562 17.6946C15.8195 18.1438 15.6334 18.5517 15.3475 18.842L16.0599 19.5438C16.52 19.0767 16.7982 18.445 16.8529 17.7761L15.8562 17.6946ZM15.3475 18.842C15.063 19.1308 14.7023 19.2816 14.3385 19.2817L14.3389 20.2817C14.9855 20.2815 15.5985 20.0122 16.0599 19.5438L15.3475 18.842ZM14.3387 19.2817H3.86133V20.2817H14.3387V19.2817ZM3.86155 19.2817C3.49774 19.2816 3.13697 19.1308 2.85247 18.842L2.14007 19.5438C2.60153 20.0122 3.21451 20.2815 3.86111 20.2817L3.86155 19.2817ZM2.85247 18.842C2.56656 18.5517 2.38051 18.1438 2.34377 17.6946L1.3471 17.7761C1.40181 18.445 1.68002 19.0767 2.14007 19.5438L2.85247 18.842ZM2.34377 17.6946L1.49833 7.36595L0.501667 7.44753L1.3471 17.7762L2.34377 17.6946ZM5.55 9.65674V6.28174H4.55V9.65674H5.55ZM5.55 6.28174C5.55 5.20486 5.93549 4.18132 6.60786 3.43424L5.86457 2.76528C5.0179 3.70602 4.55 4.97166 4.55 6.28174H5.55ZM6.60786 3.43424C7.27868 2.68889 8.1765 2.28174 9.1 2.28174V1.28174C7.87525 1.28174 6.7128 1.82279 5.86457 2.76528L6.60786 3.43424ZM9.1 2.28174C10.0235 2.28174 10.9213 2.68889 11.5921 3.43424L12.3354 2.76528C11.4872 1.82279 10.3248 1.28174 9.1 1.28174V2.28174ZM11.5921 3.43424C12.2645 4.18132 12.65 5.20486 12.65 6.28174H13.65C13.65 4.97166 13.1821 3.70602 12.3354 2.76528L11.5921 3.43424ZM12.65 6.28174V9.65674H13.65V6.28174H12.65Z" fill="#333333"/>
</svg>
