<svg width="20" height="21" viewBox="0 0 20 21" fill="none" xmlns="http://www.w3.org/2000/svg">
<path fill-rule="evenodd" clip-rule="evenodd" d="M5.78876 15.6922C8.92605 15.2338 11.0862 15.2732 14.2276 15.7082C14.4551 15.7412 14.663 15.8554 14.8128 16.0297C14.9627 16.204 15.0445 16.4266 15.043 16.6565C15.043 16.8765 14.9673 17.0901 14.8308 17.2569C14.5927 17.5478 14.3488 17.8338 14.0993 18.1149H15.3097C15.3858 18.0242 15.4623 17.9316 15.5398 17.8376C15.8117 17.5042 15.96 17.0871 15.9596 16.657C15.9596 15.7288 15.2822 14.929 14.3532 14.8007C11.1375 14.3557 8.88984 14.313 5.6563 14.7856C4.71764 14.9226 4.04297 15.7348 4.04297 16.6693C4.04297 17.0841 4.17818 17.4943 4.43439 17.8266C4.51001 17.9247 4.58472 18.021 4.65897 18.1154H5.84009C5.60791 17.8374 5.38145 17.5547 5.16084 17.2675C5.02974 17.0955 4.95902 16.8851 4.95964 16.6689C4.95964 16.1752 5.31439 15.7614 5.78876 15.6922ZM10.0013 11.2399C10.3624 11.2399 10.72 11.1688 11.0537 11.0306C11.3873 10.8924 11.6905 10.6898 11.9458 10.4345C12.2012 10.1791 12.4038 9.87593 12.542 9.54229C12.6802 9.20864 12.7513 8.85104 12.7513 8.48991C12.7513 8.12877 12.6802 7.77117 12.542 7.43753C12.4038 7.10388 12.2012 6.80073 11.9458 6.54537C11.6905 6.29 11.3873 6.08744 11.0537 5.94924C10.72 5.81104 10.3624 5.73991 10.0013 5.73991C9.27196 5.73991 8.57248 6.02964 8.05676 6.54537C7.54103 7.06109 7.2513 7.76056 7.2513 8.48991C7.2513 9.21925 7.54103 9.91873 8.05676 10.4345C8.57248 10.9502 9.27196 11.2399 10.0013 11.2399ZM10.0013 12.1566C10.9738 12.1566 11.9064 11.7703 12.594 11.0826C13.2817 10.395 13.668 9.46237 13.668 8.48991C13.668 7.51745 13.2817 6.58482 12.594 5.89718C11.9064 5.20955 10.9738 4.82324 10.0013 4.82324C9.02884 4.82324 8.09621 5.20955 7.40858 5.89718C6.72094 6.58482 6.33464 7.51745 6.33464 8.48991C6.33464 9.46237 6.72094 10.395 7.40858 11.0826C8.09621 11.7703 9.02884 12.1566 10.0013 12.1566Z" fill="#333333"/>
<path fill-rule="evenodd" clip-rule="evenodd" d="M10.0007 19.0317C14.5569 19.0317 18.2507 15.3379 18.2507 10.7817C18.2507 6.22537 14.5569 2.53166 10.0007 2.53166C5.44436 2.53166 1.75065 6.22537 1.75065 10.7817C1.75065 15.3379 5.44436 19.0317 10.0007 19.0317ZM10.0007 19.9483C15.0634 19.9483 19.1673 15.8444 19.1673 10.7817C19.1673 5.71891 15.0634 1.61499 10.0007 1.61499C4.9379 1.61499 0.833984 5.71891 0.833984 10.7817C0.833984 15.8444 4.9379 19.9483 10.0007 19.9483Z" fill="#333333"/>
</svg>
